<svg width="1440" height="1024" viewBox="0 0 1440 1024" fill="none" xmlns="http://www.w3.org/2000/svg">
<g clip-path="url(#clip0_217_1371)">
<rect width="1440" height="1024" fill="#C4B5FD"/>
<ellipse cx="435.5" cy="645.5" rx="170.5" ry="171.5" fill="#DDD6FE"/>
<ellipse cx="634.5" cy="792.5" rx="170.5" ry="171.5" fill="#DDD6FE"/>
<ellipse cx="655.5" cy="996.5" rx="170.5" ry="171.5" fill="#DDD6FE"/>
<ellipse cx="189.5" cy="570.5" rx="170.5" ry="171.5" fill="#DDD6FE"/>
<ellipse cx="-43.5" cy="654.5" rx="170.5" ry="171.5" fill="#DDD6FE"/>
<rect x="-64" y="587" width="581" height="512" fill="#DDD6FE"/>
<ellipse cx="1151.92" cy="248.245" rx="170.5" ry="171.5" transform="rotate(160.117 1151.92 248.245)" fill="#DDD6FE"/>
<ellipse cx="914.79" cy="177.686" rx="170.5" ry="171.5" transform="rotate(160.117 914.79 177.686)" fill="#DDD6FE"/>
<ellipse cx="825.663" cy="-7.01209" rx="170.5" ry="171.5" transform="rotate(160.117 825.663 -7.01209)" fill="#DDD6FE"/>
<ellipse cx="1408.77" cy="235.111" rx="170.5" ry="171.5" transform="rotate(160.117 1408.77 235.111)" fill="#DDD6FE"/>
<ellipse cx="1599.31" cy="76.8771" rx="170.5" ry="171.5" transform="rotate(160.117 1599.31 76.8771)" fill="#DDD6FE"/>
<rect x="1641.54" y="133.381" width="581" height="512" transform="rotate(160.117 1641.54 133.381)" fill="#DDD6FE"/>
<ellipse cx="1563.11" cy="836.339" rx="170.5" ry="171.5" transform="rotate(-55.1976 1563.11 836.339)" fill="#DDD6FE"/>
<ellipse cx="1361.12" cy="995.53" rx="170.5" ry="171.5" transform="rotate(-55.1976 1361.12 995.53)" fill="#DDD6FE"/>
<ellipse cx="1297.11" cy="1234.79" rx="170.5" ry="171.5" transform="rotate(-55.1976 1297.11 1234.79)" fill="#DDD6FE"/>
<rect x="1229.98" y="1213.1" width="581" height="512" transform="rotate(-55.1976 1229.98 1213.1)" fill="#DDD6FE"/>
</g>
<defs>
<clipPath id="clip0_217_1371">
<rect width="1440" height="1024" fill="white"/>
</clipPath>
</defs>
</svg>
